<?xml version="1.0" encoding="UTF-8" standalone="no"?>
<!DOCTYPE svg PUBLIC "-//W3C//DTD SVG 1.1//EN" "http://www.w3.org/Graphics/SVG/1.1/DTD/svg11.dtd">
<svg xmlns="http://www.w3.org/2000/svg" version="1.1" viewBox="0.00 0.00 500.00 500.00">
<g stroke-width="2.00" fill="none" stroke-linecap="butt">
<path stroke="#f0d4b2" vector-effect="non-scaling-stroke" d="
  M 191.95 140.68
  Q 193.02 143.91 191.60 145.08
  Q 181.37 153.49 176.93 165.81
  Q 176.12 168.04 174.65 169.61
  Q 169.29 175.33 164.03 181.00"
/>
<path stroke="#f1c4ab" vector-effect="non-scaling-stroke" d="
  M 164.03 181.00
  Q 159.90 184.06 157.62 188.26"
/>
<path stroke="#f2aea2" vector-effect="non-scaling-stroke" d="
  M 157.62 188.26
  Q 151.33 193.42 152.98 197.32"
/>
<path stroke="#f3a39d" vector-effect="non-scaling-stroke" d="
  M 152.98 197.32
  C 152.74 206.57 153.85 214.28 161.92 219.78
  C 166.12 222.64 172.16 222.49 177.15 222.36
  Q 177.66 222.35 178.03 222.00
  L 182.41 217.94
  A 0.23 0.22 -4.3 0 1 182.75 218.23
  L 178.88 223.83
  Q 178.57 224.29 178.01 224.35
  L 166.48 225.63
  A 0.35 0.35 0.0 0 0 166.22 226.15
  Q 171.48 235.02 181.03 238.71
  A 0.46 0.45 80.4 0 0 181.54 237.99
  L 179.80 235.90
  A 0.52 0.52 0.0 0 1 180.33 235.07
  L 185.05 236.28
  A 0.83 0.83 0.0 0 0 185.92 234.99
  L 184.04 232.44
  Q 183.27 231.41 184.51 231.75
  L 190.39 233.37
  A 0.91 0.91 0.0 0 0 191.53 232.42
  L 191.22 229.04"
/>
<path stroke="#f1c4ab" vector-effect="non-scaling-stroke" d="
  M 191.22 229.04
  Q 193.11 223.03 199.19 223.19
  C 202.02 223.26 203.86 228.40 205.27 231.48"
/>
<path stroke="#f3a39d" vector-effect="non-scaling-stroke" d="
  M 205.27 231.48
  Q 201.93 236.71 199.91 242.93
  Q 198.67 246.77 198.45 249.54"
/>
<path stroke="#c7999c" vector-effect="non-scaling-stroke" d="
  M 198.45 249.54
  Q 196.72 264.99 203.26 277.94
  A 0.43 0.43 0.0 0 0 204.08 277.77
  Q 204.73 265.87 211.92 256.42
  Q 212.92 255.11 213.01 256.75
  Q 213.96 274.07 222.68 289.00
  Q 224.23 291.66 224.22 288.58
  Q 224.21 275.09 231.24 263.73
  A 0.59 0.59 0.0 0 1 232.33 264.04
  Q 232.44 284.11 245.36 299.16
  A 0.96 0.96 0.0 0 0 247.05 298.53
  L 247.04 297.79"
/>
<path stroke="#f0d4b2" vector-effect="non-scaling-stroke" d="
  M 247.04 297.79
  L 249.86 289.26
  A 0.68 0.68 0.0 0 1 251.18 289.36
  C 253.37 302.37 267.70 315.98 278.56 322.50
  Q 279.14 322.85 279.05 322.18
  Q 278.55 318.45 278.08 314.74
  C 277.25 308.15 278.37 301.86 279.50 295.53
  A 0.70 0.70 0.0 0 1 280.83 295.37
  C 287.03 309.21 297.77 316.13 310.86 322.53
  A 0.30 0.30 0.0 0 0 311.20 322.04
  Q 305.11 316.41 300.71 308.81"
/>
<path stroke="#f2aea2" vector-effect="non-scaling-stroke" d="
  M 300.71 308.81
  C 295.18 297.92 293.07 286.81 291.24 274.72
  A 0.34 0.34 0.0 0 1 291.85 274.48
  C 296.48 281.22 300.41 286.39 308.71 288.87
  A 0.39 0.39 0.0 0 0 309.14 288.27
  Q 298.43 272.93 296.74 253.97
  Q 296.26 248.66 295.85 243.69
  A 0.36 0.36 0.0 0 1 296.52 243.49
  Q 301.29 251.96 308.88 258.02
  Q 309.59 258.59 309.54 257.68
  Q 309.45 256.08 308.77 253.75
  Q 306.25 245.04 306.21 233.05"
/>
<path stroke="#f3a39d" vector-effect="non-scaling-stroke" d="
  M 306.21 233.05
  Q 306.31 219.33 313.43 206.39
  A 0.40 0.40 0.0 0 1 314.17 206.49
  Q 316.61 216.57 314.80 226.78
  Q 314.64 227.71 315.31 227.04
  C 324.06 218.37 325.51 199.45 323.57 188.20
  A 0.22 0.22 0.0 0 1 323.98 188.07
  C 327.40 195.29 327.06 203.23 326.48 210.90
  A 0.39 0.38 -25.1 0 0 327.18 211.15
  Q 336.65 198.00 336.32 182.12
  C 336.27 179.80 335.41 177.36 334.99 174.87
  A 0.32 0.32 0.0 0 1 335.58 174.64
  Q 340.10 181.74 342.76 189.75
  A 0.48 0.48 0.0 0 0 343.68 189.71
  Q 350.27 160.68 323.63 150.07
  Q 323.39 149.98 323.63 149.90
  Q 337.31 145.62 346.63 134.71
  A 0.25 0.24 10.7 0 0 346.36 134.32
  C 325.58 141.54 306.48 135.92 291.52 120.19
  Q 290.89 119.54 291.78 119.39
  L 306.75 116.94
  Q 306.94 116.91 306.80 116.78
  C 290.25 101.37 265.52 97.34 245.34 108.77
  A 0.46 0.46 0.0 0 1 244.79 108.04
  Q 250.88 102.13 258.00 97.52
  Q 259.02 96.86 257.81 96.90
  C 240.85 97.46 221.16 101.76 208.78 114.54
  C 208.01 115.33 207.05 116.78 206.07 117.75
  Q 205.39 118.41 205.76 117.54
  Q 208.39 111.24 212.86 106.10
  A 0.36 0.36 0.0 0 0 212.43 105.54
  C 202.76 110.28 194.85 118.95 192.71 129.65
  C 191.92 133.58 190.95 136.10 191.95 140.68"
/>
<path stroke="#e65240" vector-effect="non-scaling-stroke" d="
  M 306.21 233.05
  Q 295.87 231.14 284.09 232.28"
/>
<path stroke="#e56849" vector-effect="non-scaling-stroke" d="
  M 284.09 232.28
  L 284.55 227.93"
/>
<path stroke="#e65240" vector-effect="non-scaling-stroke" d="
  M 284.55 227.93
  Q 286.41 216.07 292.01 204.79
  A 0.27 0.27 0.0 0 1 292.52 204.86
  C 293.18 208.51 295.99 222.90 298.58 224.88
  Q 299.36 225.47 299.15 224.52
  C 295.59 208.16 302.48 188.80 311.90 175.61
  A 0.87 0.87 0.0 0 0 311.19 174.24
  L 294.10 174.29
  A 1.34 1.34 0.0 0 1 292.83 173.38
  C 287.85 158.63 273.32 148.92 258.72 145.07
  A 1.84 1.84 0.0 0 1 257.68 142.25
  C 262.82 134.84 267.32 128.04 269.50 119.15
  A 1.06 1.05 13.7 0 0 268.72 117.88
  Q 255.16 114.66 241.49 117.30
  A 0.71 0.71 0.0 0 0 241.12 118.50
  Q 242.13 119.51 243.49 119.76
  Q 243.93 119.84 244.06 120.26
  Q 244.29 120.98 243.98 121.84"
/>
<path stroke="#e56849" vector-effect="non-scaling-stroke" d="
  M 243.98 121.84
  Q 233.01 124.25 223.20 130.72
  Q 221.03 132.15 223.59 131.71
  Q 230.87 130.47 239.13 131.38"
/>
<path stroke="#e65240" vector-effect="non-scaling-stroke" d="
  M 239.13 131.38
  Q 245.75 131.96 247.19 136.92
  C 247.78 138.94 248.31 140.66 247.72 142.05
  Q 247.52 142.53 247.01 142.50
  C 237.97 142.04 226.73 149.97 221.12 156.41
  A 0.31 0.30 70.7 0 1 220.59 156.15
  Q 221.78 149.26 225.21 143.21
  A 0.35 0.35 0.0 0 0 224.66 142.78
  Q 215.12 151.60 212.53 164.25
  C 210.97 171.90 209.45 178.36 209.92 184.14
  Q 210.33 189.13 208.47 186.31"
/>
<path stroke="#e56849" vector-effect="non-scaling-stroke" d="
  M 208.47 186.31
  L 208.07 185.01"
/>
<path stroke="#e47850" vector-effect="non-scaling-stroke" d="
  M 208.07 185.01
  Q 205.26 173.95 205.65 162.82
  C 205.70 161.19 206.58 159.45 206.50 157.63
  A 0.45 0.45 0.0 0 0 205.67 157.40
  L 203.16 161.16
  Q 202.73 161.81 202.63 161.03
  C 201.68 153.09 204.15 143.63 207.02 136.21
  Q 207.36 135.33 206.64 135.94
  Q 199.57 141.94 195.54 150.32
  A 0.90 0.90 0.0 0 1 193.85 150.10
  L 192.95 145.44
  Q 192.85 144.95 192.94 144.45
  Q 193.32 142.33 191.95 140.68"
/>
<path stroke="#e4724e" vector-effect="non-scaling-stroke" d="
  M 284.09 232.28
  C 283.13 240.53 283.94 247.79 286.25 255.96
  A 0.27 0.27 0.0 0 1 285.78 256.19
  C 282.24 251.30 280.12 244.61 278.54 238.77
  A 0.36 0.36 0.0 0 0 277.84 238.82
  Q 274.83 265.97 286.12 290.96"
/>
<path stroke="#e1995e" vector-effect="non-scaling-stroke" d="
  M 286.12 290.96
  Q 280.54 293.83 274.24 292.66
  Q 268.38 291.58 263.28 292.29
  A 1.54 1.53 -11.3 0 1 261.59 291.17
  Q 256.16 271.24 258.63 250.68
  Q 258.83 249.01 257.19 248.67
  L 248.91 246.96
  Q 248.62 246.90 248.43 246.68
  Q 247.95 246.12 246.44 247.29"
/>
<path stroke="#b95e48" vector-effect="non-scaling-stroke" d="
  M 246.44 247.29
  Q 250.01 235.50 255.86 224.82"
/>
<path stroke="#e1995e" vector-effect="non-scaling-stroke" d="
  M 208.07 185.01
  Q 206.74 184.27 206.29 184.99
  C 204.65 187.62 208.31 194.65 209.53 197.41
  A 0.48 0.48 0.0 0 0 210.39 197.46
  L 211.81 194.98
  A 0.35 0.35 0.0 0 1 212.45 195.09
  Q 213.13 198.77 211.52 202.05
  Q 211.19 202.71 210.81 202.08
  C 209.88 200.56 208.14 197.88 206.24 198.44
  Q 205.73 198.59 205.45 198.15
  Q 204.67 196.90 203.55 195.95
  Q 192.35 186.39 180.64 176.26
  A 1.16 1.16 0.0 0 1 180.91 174.33
  L 187.56 171.27
  Q 187.77 171.17 187.60 171.02
  Q 187.47 170.92 187.25 171.00
  C 183.38 172.51 178.29 173.59 175.84 177.32"
/>
<path stroke="#e38355" vector-effect="non-scaling-stroke" d="
  M 175.84 177.32
  Q 175.82 176.17 176.20 175.52
  A 1.14 1.14 0.0 0 0 174.51 174.04
  L 162.62 183.44"
/>
<path stroke="#e1995e" vector-effect="non-scaling-stroke" d="
  M 162.62 183.44
  L 164.03 181.00"
/>
<path stroke="#e56849" vector-effect="non-scaling-stroke" d="
  M 191.22 229.04
  L 189.18 228.73
  Q 188.71 228.66 188.64 228.19
  Q 187.69 221.48 193.50 218.29"
/>
<path stroke="#e4724e" vector-effect="non-scaling-stroke" d="
  M 193.50 218.29
  L 195.36 217.51
  Q 196.11 217.20 196.28 218.00
  L 196.49 219.00
  A 0.49 0.48 -15.7 0 0 197.13 219.35
  Q 201.40 217.76 205.11 220.40
  A 1.13 1.13 0.0 0 0 206.83 219.85
  L 209.07 213.29
  Q 209.20 212.90 208.87 212.65
  Q 208.09 212.06 208.02 211.11
  Q 207.99 210.69 207.70 210.38
  L 202.38 204.82
  A 1.25 1.22 -70.7 0 1 202.06 204.13
  Q 201.94 203.21 201.21 203.03
  Q 200.63 202.88 199.91 203.40
  Q 195.54 206.57 192.20 210.82
  Q 191.90 211.22 191.41 211.11
  Q 190.91 211.01 190.69 210.22"
/>
<path stroke="#e56849" vector-effect="non-scaling-stroke" d="
  M 190.69 210.22
  L 192.19 206.22
  A 0.66 0.65 78.8 0 0 191.13 205.51
  L 187.19 209.16"
/>
<path stroke="#e4724e" vector-effect="non-scaling-stroke" d="
  M 187.19 209.16
  L 169.01 193.22
  Q 168.61 192.87 168.74 192.36
  C 169.92 187.32 172.16 182.98 175.84 177.32"
/>
<path stroke="#e4724e" vector-effect="non-scaling-stroke" d="
  M 284.55 227.93
  L 264.41 227.75
  A 1.54 1.53 9.0 0 1 262.95 225.75
  L 268.14 209.38
  A 0.71 0.70 29.2 0 0 267.93 208.65
  L 265.74 206.76
  A 0.65 0.65 0.0 0 0 264.73 206.96
  L 255.86 224.82"
/>
<path stroke="#ba483e" vector-effect="non-scaling-stroke" d="
  M 255.86 224.82
  Q 255.30 222.83 253.22 223.50"
/>
<path stroke="#e65240" vector-effect="non-scaling-stroke" d="
  M 253.22 223.50
  C 261.30 207.03 273.57 181.63 253.89 167.82
  A 0.48 0.48 0.0 0 0 253.24 168.51
  Q 259.28 176.04 257.98 185.77
  A 0.74 0.74 0.0 0 1 256.55 185.93
  C 248.71 165.01 228.01 161.26 212.72 176.60
  A 0.83 0.83 0.0 0 0 212.53 177.48
  Q 212.87 178.35 212.46 178.44"
/>
<path stroke="#e4724e" vector-effect="non-scaling-stroke" d="
  M 212.46 178.44
  C 212.07 182.37 213.02 186.81 210.12 190.18
  Q 209.81 190.54 209.67 190.09
  L 208.47 186.31"
/>
<path stroke="#e4724e" vector-effect="non-scaling-stroke" d="
  M 239.13 131.38
  Q 239.81 131.36 240.20 131.10
  A 0.61 0.60 -36.3 0 0 240.34 130.22
  Q 239.07 128.66 239.75 126.78
  Q 239.93 126.28 240.44 126.14
  C 243.73 125.27 254.35 125.81 254.47 130.76
  Q 254.64 137.93 249.33 142.42
  C 248.55 143.08 248.08 143.85 248.59 144.79
  Q 248.86 145.28 249.25 144.88
  Q 258.92 134.97 264.40 122.27
  Q 264.61 121.79 264.10 121.68
  Q 254.05 119.45 243.98 121.84"
/>
<path stroke="#e38355" vector-effect="non-scaling-stroke" d="
  M 300.71 308.81
  L 299.07 310.01
  A 0.57 0.57 0.0 0 1 298.30 309.92
  Q 291.03 301.17 286.12 290.96"
/>
<path stroke="#b86e4f" vector-effect="non-scaling-stroke" d="
  M 246.44 247.29
  Q 240.05 272.21 245.99 297.37
  Q 246.11 297.87 246.62 297.89
  Q 246.83 297.89 247.04 297.79"
/>
<path stroke="#a43839" vector-effect="non-scaling-stroke" d="
  M 235.63 244.73
  Q 235.08 258.13 237.02 272.71
  Q 237.12 273.41 237.79 273.19
  Q 239.09 272.77 240.45 273.45
  A 0.79 0.78 11.2 0 0 241.59 272.69
  C 241.26 268.37 240.97 264.58 241.87 260.24
  Q 243.87 250.55 246.25 240.67"
/>
<path stroke="#e65240" vector-effect="non-scaling-stroke" d="
  M 187.19 209.16
  Q 182.56 213.73 177.75 217.62
  C 176.12 218.95 170.13 221.08 169.12 218.25
  A 2.06 2.02 10.8 0 0 168.55 217.43
  L 160.53 210.71
  A 1.95 1.95 0.0 0 1 160.00 208.43
  L 162.43 202.92
  Q 162.65 202.41 162.49 201.88
  C 161.38 198.35 163.80 197.67 164.47 195.22
  Q 165.52 191.41 163.30 187.76
  A 0.80 0.80 0.0 0 0 162.50 187.39
  C 159.39 187.91 157.80 190.98 154.92 192.19
  Q 154.47 192.38 154.33 192.85
  L 152.98 197.32"
/>
<path stroke="#e4724e" vector-effect="non-scaling-stroke" d="
  M 157.62 188.26
  L 162.62 183.44"
/>
<path stroke="#bb3d3a" vector-effect="non-scaling-stroke" d="
  M 253.22 223.50
  Q 248.77 231.97 246.25 240.67"
/>
<path stroke="#d0423a" vector-effect="non-scaling-stroke" d="
  M 246.25 240.67
  Q 244.71 242.78 244.16 245.63
  A 0.19 0.19 0.0 0 1 243.79 245.63
  L 243.72 245.09
  Q 243.64 244.56 243.10 244.57
  L 235.63 244.73"
/>
<path stroke="#bb3d3a" vector-effect="non-scaling-stroke" d="
  M 235.63 244.73
  L 236.10 237.51"
/>
<path stroke="#d0423a" vector-effect="non-scaling-stroke" d="
  M 236.10 237.51
  L 239.20 213.00
  A 2.39 2.39 0.0 0 0 236.92 210.32
  L 230.84 210.09
  A 1.50 1.50 0.0 0 0 229.32 211.25
  C 227.20 220.59 222.56 228.05 219.56 236.98"
/>
<path stroke="#bb3d3a" vector-effect="non-scaling-stroke" d="
  M 219.56 236.98
  L 217.50 247.39
  A 2.39 2.38 -84.7 0 1 215.20 249.31
  L 198.45 249.54"
/>
<path stroke="#e56849" vector-effect="non-scaling-stroke" d="
  M 205.27 231.48
  L 207.11 227.71
  A 0.68 0.66 0.8 0 1 207.46 227.38
  L 208.46 226.95
  Q 208.87 226.78 209.17 226.45
  L 215.09 220.00
  A 0.49 0.49 0.0 0 0 214.61 219.19
  L 208.55 220.80
  Q 207.87 220.97 208.16 220.34
  Q 216.94 201.15 213.75 180.33
  C 213.64 179.62 213.01 178.88 212.46 178.44"
/>
<path stroke="#e65240" vector-effect="non-scaling-stroke" d="
  M 190.69 210.22
  Q 189.67 211.88 189.53 213.74
  A 0.41 0.41 0.0 0 0 190.07 214.15
  L 191.32 213.72
  A 0.61 0.60 80.8 0 1 192.12 214.30
  Q 192.11 216.14 193.83 216.48
  A 0.56 0.56 0.0 0 1 194.17 217.36
  L 193.50 218.29"
/>
<path stroke="#a43839" vector-effect="non-scaling-stroke" d="
  M 236.10 237.51
  Q 227.69 238.11 219.56 236.98"
/>
</g>
<path fill="#ffffff" d="
  M 0.00 0.00
  L 500.00 0.00
  L 500.00 500.00
  L 0.00 500.00
  L 0.00 0.00
  Z
  M 191.95 140.68
  Q 193.02 143.91 191.60 145.08
  Q 181.37 153.49 176.93 165.81
  Q 176.12 168.04 174.65 169.61
  Q 169.29 175.33 164.03 181.00
  Q 159.90 184.06 157.62 188.26
  Q 151.33 193.42 152.98 197.32
  C 152.74 206.57 153.85 214.28 161.92 219.78
  C 166.12 222.64 172.16 222.49 177.15 222.36
  Q 177.66 222.35 178.03 222.00
  L 182.41 217.94
  A 0.23 0.22 -4.3 0 1 182.75 218.23
  L 178.88 223.83
  Q 178.57 224.29 178.01 224.35
  L 166.48 225.63
  A 0.35 0.35 0.0 0 0 166.22 226.15
  Q 171.48 235.02 181.03 238.71
  A 0.46 0.45 80.4 0 0 181.54 237.99
  L 179.80 235.90
  A 0.52 0.52 0.0 0 1 180.33 235.07
  L 185.05 236.28
  A 0.83 0.83 0.0 0 0 185.92 234.99
  L 184.04 232.44
  Q 183.27 231.41 184.51 231.75
  L 190.39 233.37
  A 0.91 0.91 0.0 0 0 191.53 232.42
  L 191.22 229.04
  Q 193.11 223.03 199.19 223.19
  C 202.02 223.26 203.86 228.40 205.27 231.48
  Q 201.93 236.71 199.91 242.93
  Q 198.67 246.77 198.45 249.54
  Q 196.72 264.99 203.26 277.94
  A 0.43 0.43 0.0 0 0 204.08 277.77
  Q 204.73 265.87 211.92 256.42
  Q 212.92 255.11 213.01 256.75
  Q 213.96 274.07 222.68 289.00
  Q 224.23 291.66 224.22 288.58
  Q 224.21 275.09 231.24 263.73
  A 0.59 0.59 0.0 0 1 232.33 264.04
  Q 232.44 284.11 245.36 299.16
  A 0.96 0.96 0.0 0 0 247.05 298.53
  L 247.04 297.79
  L 249.86 289.26
  A 0.68 0.68 0.0 0 1 251.18 289.36
  C 253.37 302.37 267.70 315.98 278.56 322.50
  Q 279.14 322.85 279.05 322.18
  Q 278.55 318.45 278.08 314.74
  C 277.25 308.15 278.37 301.86 279.50 295.53
  A 0.70 0.70 0.0 0 1 280.83 295.37
  C 287.03 309.21 297.77 316.13 310.86 322.53
  A 0.30 0.30 0.0 0 0 311.20 322.04
  Q 305.11 316.41 300.71 308.81
  C 295.18 297.92 293.07 286.81 291.24 274.72
  A 0.34 0.34 0.0 0 1 291.85 274.48
  C 296.48 281.22 300.41 286.39 308.71 288.87
  A 0.39 0.39 0.0 0 0 309.14 288.27
  Q 298.43 272.93 296.74 253.97
  Q 296.26 248.66 295.85 243.69
  A 0.36 0.36 0.0 0 1 296.52 243.49
  Q 301.29 251.96 308.88 258.02
  Q 309.59 258.59 309.54 257.68
  Q 309.45 256.08 308.77 253.75
  Q 306.25 245.04 306.21 233.05
  Q 306.31 219.33 313.43 206.39
  A 0.40 0.40 0.0 0 1 314.17 206.49
  Q 316.61 216.57 314.80 226.78
  Q 314.64 227.71 315.31 227.04
  C 324.06 218.37 325.51 199.45 323.57 188.20
  A 0.22 0.22 0.0 0 1 323.98 188.07
  C 327.40 195.29 327.06 203.23 326.48 210.90
  A 0.39 0.38 -25.1 0 0 327.18 211.15
  Q 336.65 198.00 336.32 182.12
  C 336.27 179.80 335.41 177.36 334.99 174.87
  A 0.32 0.32 0.0 0 1 335.58 174.64
  Q 340.10 181.74 342.76 189.75
  A 0.48 0.48 0.0 0 0 343.68 189.71
  Q 350.27 160.68 323.63 150.07
  Q 323.39 149.98 323.63 149.90
  Q 337.31 145.62 346.63 134.71
  A 0.25 0.24 10.7 0 0 346.36 134.32
  C 325.58 141.54 306.48 135.92 291.52 120.19
  Q 290.89 119.54 291.78 119.39
  L 306.75 116.94
  Q 306.94 116.91 306.80 116.78
  C 290.25 101.37 265.52 97.34 245.34 108.77
  A 0.46 0.46 0.0 0 1 244.79 108.04
  Q 250.88 102.13 258.00 97.52
  Q 259.02 96.86 257.81 96.90
  C 240.85 97.46 221.16 101.76 208.78 114.54
  C 208.01 115.33 207.05 116.78 206.07 117.75
  Q 205.39 118.41 205.76 117.54
  Q 208.39 111.24 212.86 106.10
  A 0.36 0.36 0.0 0 0 212.43 105.54
  C 202.76 110.28 194.85 118.95 192.71 129.65
  C 191.92 133.58 190.95 136.10 191.95 140.68
  Z"
/>
<path fill="#e7473b" d="
  M 306.21 233.05
  Q 295.87 231.14 284.09 232.28
  L 284.55 227.93
  Q 286.41 216.07 292.01 204.79
  A 0.27 0.27 0.0 0 1 292.52 204.86
  C 293.18 208.51 295.99 222.90 298.58 224.88
  Q 299.36 225.47 299.15 224.52
  C 295.59 208.16 302.48 188.80 311.90 175.61
  A 0.87 0.87 0.0 0 0 311.19 174.24
  L 294.10 174.29
  A 1.34 1.34 0.0 0 1 292.83 173.38
  C 287.85 158.63 273.32 148.92 258.72 145.07
  A 1.84 1.84 0.0 0 1 257.68 142.25
  C 262.82 134.84 267.32 128.04 269.50 119.15
  A 1.06 1.05 13.7 0 0 268.72 117.88
  Q 255.16 114.66 241.49 117.30
  A 0.71 0.71 0.0 0 0 241.12 118.50
  Q 242.13 119.51 243.49 119.76
  Q 243.93 119.84 244.06 120.26
  Q 244.29 120.98 243.98 121.84
  Q 233.01 124.25 223.20 130.72
  Q 221.03 132.15 223.59 131.71
  Q 230.87 130.47 239.13 131.38
  Q 245.75 131.96 247.19 136.92
  C 247.78 138.94 248.31 140.66 247.72 142.05
  Q 247.52 142.53 247.01 142.50
  C 237.97 142.04 226.73 149.97 221.12 156.41
  A 0.31 0.30 70.7 0 1 220.59 156.15
  Q 221.78 149.26 225.21 143.21
  A 0.35 0.35 0.0 0 0 224.66 142.78
  Q 215.12 151.60 212.53 164.25
  C 210.97 171.90 209.45 178.36 209.92 184.14
  Q 210.33 189.13 208.47 186.31
  L 208.07 185.01
  Q 205.26 173.95 205.65 162.82
  C 205.70 161.19 206.58 159.45 206.50 157.63
  A 0.45 0.45 0.0 0 0 205.67 157.40
  L 203.16 161.16
  Q 202.73 161.81 202.63 161.03
  C 201.68 153.09 204.15 143.63 207.02 136.21
  Q 207.36 135.33 206.64 135.94
  Q 199.57 141.94 195.54 150.32
  A 0.90 0.90 0.0 0 1 193.85 150.10
  L 192.95 145.44
  Q 192.85 144.95 192.94 144.45
  Q 193.32 142.33 191.95 140.68
  C 190.95 136.10 191.92 133.58 192.71 129.65
  C 194.85 118.95 202.76 110.28 212.43 105.54
  A 0.36 0.36 0.0 0 1 212.86 106.10
  Q 208.39 111.24 205.76 117.54
  Q 205.39 118.41 206.07 117.75
  C 207.05 116.78 208.01 115.33 208.78 114.54
  C 221.16 101.76 240.85 97.46 257.81 96.90
  Q 259.02 96.86 258.00 97.52
  Q 250.88 102.13 244.79 108.04
  A 0.46 0.46 0.0 0 0 245.34 108.77
  C 265.52 97.34 290.25 101.37 306.80 116.78
  Q 306.94 116.91 306.75 116.94
  L 291.78 119.39
  Q 290.89 119.54 291.52 120.19
  C 306.48 135.92 325.58 141.54 346.36 134.32
  A 0.25 0.24 10.7 0 1 346.63 134.71
  Q 337.31 145.62 323.63 149.90
  Q 323.39 149.98 323.63 150.07
  Q 350.27 160.68 343.68 189.71
  A 0.48 0.48 0.0 0 1 342.76 189.75
  Q 340.10 181.74 335.58 174.64
  A 0.32 0.32 0.0 0 0 334.99 174.87
  C 335.41 177.36 336.27 179.80 336.32 182.12
  Q 336.65 198.00 327.18 211.15
  A 0.39 0.38 -25.1 0 1 326.48 210.90
  C 327.06 203.23 327.40 195.29 323.98 188.07
  A 0.22 0.22 0.0 0 0 323.57 188.20
  C 325.51 199.45 324.06 218.37 315.31 227.04
  Q 314.64 227.71 314.80 226.78
  Q 316.61 216.57 314.17 206.49
  A 0.40 0.40 0.0 0 0 313.43 206.39
  Q 306.31 219.33 306.21 233.05
  Z"
/>
<path fill="#e55c44" d="
  M 284.55 227.93
  L 264.41 227.75
  A 1.54 1.53 9.0 0 1 262.95 225.75
  L 268.14 209.38
  A 0.71 0.70 29.2 0 0 267.93 208.65
  L 265.74 206.76
  A 0.65 0.65 0.0 0 0 264.73 206.96
  L 255.86 224.82
  Q 255.30 222.83 253.22 223.50
  C 261.30 207.03 273.57 181.63 253.89 167.82
  A 0.48 0.48 0.0 0 0 253.24 168.51
  Q 259.28 176.04 257.98 185.77
  A 0.74 0.74 0.0 0 1 256.55 185.93
  C 248.71 165.01 228.01 161.26 212.72 176.60
  A 0.83 0.83 0.0 0 0 212.53 177.48
  Q 212.87 178.35 212.46 178.44
  C 212.07 182.37 213.02 186.81 210.12 190.18
  Q 209.81 190.54 209.67 190.09
  L 208.47 186.31
  Q 210.33 189.13 209.92 184.14
  C 209.45 178.36 210.97 171.90 212.53 164.25
  Q 215.12 151.60 224.66 142.78
  A 0.35 0.35 0.0 0 1 225.21 143.21
  Q 221.78 149.26 220.59 156.15
  A 0.31 0.30 70.7 0 0 221.12 156.41
  C 226.73 149.97 237.97 142.04 247.01 142.50
  Q 247.52 142.53 247.72 142.05
  C 248.31 140.66 247.78 138.94 247.19 136.92
  Q 245.75 131.96 239.13 131.38
  Q 239.81 131.36 240.20 131.10
  A 0.61 0.60 -36.3 0 0 240.34 130.22
  Q 239.07 128.66 239.75 126.78
  Q 239.93 126.28 240.44 126.14
  C 243.73 125.27 254.35 125.81 254.47 130.76
  Q 254.64 137.93 249.33 142.42
  C 248.55 143.08 248.08 143.85 248.59 144.79
  Q 248.86 145.28 249.25 144.88
  Q 258.92 134.97 264.40 122.27
  Q 264.61 121.79 264.10 121.68
  Q 254.05 119.45 243.98 121.84
  Q 244.29 120.98 244.06 120.26
  Q 243.93 119.84 243.49 119.76
  Q 242.13 119.51 241.12 118.50
  A 0.71 0.71 0.0 0 1 241.49 117.30
  Q 255.16 114.66 268.72 117.88
  A 1.06 1.05 13.7 0 1 269.50 119.15
  C 267.32 128.04 262.82 134.84 257.68 142.25
  A 1.84 1.84 0.0 0 0 258.72 145.07
  C 273.32 148.92 287.85 158.63 292.83 173.38
  A 1.34 1.34 0.0 0 0 294.10 174.29
  L 311.19 174.24
  A 0.87 0.87 0.0 0 1 311.90 175.61
  C 302.48 188.80 295.59 208.16 299.15 224.52
  Q 299.36 225.47 298.58 224.88
  C 295.99 222.90 293.18 208.51 292.52 204.86
  A 0.27 0.27 0.0 0 0 292.01 204.79
  Q 286.41 216.07 284.55 227.93
  Z"
/>
<path fill="#e28857" d="
  M 239.13 131.38
  Q 230.87 130.47 223.59 131.71
  Q 221.03 132.15 223.20 130.72
  Q 233.01 124.25 243.98 121.84
  Q 254.05 119.45 264.10 121.68
  Q 264.61 121.79 264.40 122.27
  Q 258.92 134.97 249.25 144.88
  Q 248.86 145.28 248.59 144.79
  C 248.08 143.85 248.55 143.08 249.33 142.42
  Q 254.64 137.93 254.47 130.76
  C 254.35 125.81 243.73 125.27 240.44 126.14
  Q 239.93 126.28 239.75 126.78
  Q 239.07 128.66 240.34 130.22
  A 0.61 0.60 -36.3 0 1 240.20 131.10
  Q 239.81 131.36 239.13 131.38
  Z"
/>
<path fill="#e0a965" d="
  M 208.07 185.01
  Q 206.74 184.27 206.29 184.99
  C 204.65 187.62 208.31 194.65 209.53 197.41
  A 0.48 0.48 0.0 0 0 210.39 197.46
  L 211.81 194.98
  A 0.35 0.35 0.0 0 1 212.45 195.09
  Q 213.13 198.77 211.52 202.05
  Q 211.19 202.71 210.81 202.08
  C 209.88 200.56 208.14 197.88 206.24 198.44
  Q 205.73 198.59 205.45 198.15
  Q 204.67 196.90 203.55 195.95
  Q 192.35 186.39 180.64 176.26
  A 1.16 1.16 0.0 0 1 180.91 174.33
  L 187.56 171.27
  Q 187.77 171.17 187.60 171.02
  Q 187.47 170.92 187.25 171.00
  C 183.38 172.51 178.29 173.59 175.84 177.32
  Q 175.82 176.17 176.20 175.52
  A 1.14 1.14 0.0 0 0 174.51 174.04
  L 162.62 183.44
  L 164.03 181.00
  Q 169.29 175.33 174.65 169.61
  Q 176.12 168.04 176.93 165.81
  Q 181.37 153.49 191.60 145.08
  Q 193.02 143.91 191.95 140.68
  Q 193.32 142.33 192.94 144.45
  Q 192.85 144.95 192.95 145.44
  L 193.85 150.10
  A 0.90 0.90 0.0 0 0 195.54 150.32
  Q 199.57 141.94 206.64 135.94
  Q 207.36 135.33 207.02 136.21
  C 204.15 143.63 201.68 153.09 202.63 161.03
  Q 202.73 161.81 203.16 161.16
  L 205.67 157.40
  A 0.45 0.45 0.0 0 1 206.50 157.63
  C 206.58 159.45 205.70 161.19 205.65 162.82
  Q 205.26 173.95 208.07 185.01
  Z"
/>
<path fill="#e7473b" d="
  M 253.22 223.50
  Q 248.77 231.97 246.25 240.67
  Q 244.71 242.78 244.16 245.63
  A 0.19 0.19 0.0 0 1 243.79 245.63
  L 243.72 245.09
  Q 243.64 244.56 243.10 244.57
  L 235.63 244.73
  L 236.10 237.51
  L 239.20 213.00
  A 2.39 2.39 0.0 0 0 236.92 210.32
  L 230.84 210.09
  A 1.50 1.50 0.0 0 0 229.32 211.25
  C 227.20 220.59 222.56 228.05 219.56 236.98
  L 217.50 247.39
  A 2.39 2.38 -84.7 0 1 215.20 249.31
  L 198.45 249.54
  Q 198.67 246.77 199.91 242.93
  Q 201.93 236.71 205.27 231.48
  L 207.11 227.71
  A 0.68 0.66 0.8 0 1 207.46 227.38
  L 208.46 226.95
  Q 208.87 226.78 209.17 226.45
  L 215.09 220.00
  A 0.49 0.49 0.0 0 0 214.61 219.19
  L 208.55 220.80
  Q 207.87 220.97 208.16 220.34
  Q 216.94 201.15 213.75 180.33
  C 213.64 179.62 213.01 178.88 212.46 178.44
  Q 212.87 178.35 212.53 177.48
  A 0.83 0.83 0.0 0 1 212.72 176.60
  C 228.01 161.26 248.71 165.01 256.55 185.93
  A 0.74 0.74 0.0 0 0 257.98 185.77
  Q 259.28 176.04 253.24 168.51
  A 0.48 0.48 0.0 0 1 253.89 167.82
  C 273.57 181.63 261.30 207.03 253.22 223.50
  Z"
/>
<path fill="#e28857" d="
  M 208.07 185.01
  L 208.47 186.31
  L 209.67 190.09
  Q 209.81 190.54 210.12 190.18
  C 213.02 186.81 212.07 182.37 212.46 178.44
  C 213.01 178.88 213.64 179.62 213.75 180.33
  Q 216.94 201.15 208.16 220.34
  Q 207.87 220.97 208.55 220.80
  L 214.61 219.19
  A 0.49 0.49 0.0 0 1 215.09 220.00
  L 209.17 226.45
  Q 208.87 226.78 208.46 226.95
  L 207.46 227.38
  A 0.68 0.66 0.8 0 0 207.11 227.71
  L 205.27 231.48
  C 203.86 228.40 202.02 223.26 199.19 223.19
  Q 193.11 223.03 191.22 229.04
  L 189.18 228.73
  Q 188.71 228.66 188.64 228.19
  Q 187.69 221.48 193.50 218.29
  L 195.36 217.51
  Q 196.11 217.20 196.28 218.00
  L 196.49 219.00
  A 0.49 0.48 -15.7 0 0 197.13 219.35
  Q 201.40 217.76 205.11 220.40
  A 1.13 1.13 0.0 0 0 206.83 219.85
  L 209.07 213.29
  Q 209.20 212.90 208.87 212.65
  Q 208.09 212.06 208.02 211.11
  Q 207.99 210.69 207.70 210.38
  L 202.38 204.82
  A 1.25 1.22 -70.7 0 1 202.06 204.13
  Q 201.94 203.21 201.21 203.03
  Q 200.63 202.88 199.91 203.40
  Q 195.54 206.57 192.20 210.82
  Q 191.90 211.22 191.41 211.11
  Q 190.91 211.01 190.69 210.22
  L 192.19 206.22
  A 0.66 0.65 78.8 0 0 191.13 205.51
  L 187.19 209.16
  L 169.01 193.22
  Q 168.61 192.87 168.74 192.36
  C 169.92 187.32 172.16 182.98 175.84 177.32
  C 178.29 173.59 183.38 172.51 187.25 171.00
  Q 187.47 170.92 187.60 171.02
  Q 187.77 171.17 187.56 171.27
  L 180.91 174.33
  A 1.16 1.16 0.0 0 0 180.64 176.26
  Q 192.35 186.39 203.55 195.95
  Q 204.67 196.90 205.45 198.15
  Q 205.73 198.59 206.24 198.44
  C 208.14 197.88 209.88 200.56 210.81 202.08
  Q 211.19 202.71 211.52 202.05
  Q 213.13 198.77 212.45 195.09
  A 0.35 0.35 0.0 0 0 211.81 194.98
  L 210.39 197.46
  A 0.48 0.48 0.0 0 1 209.53 197.41
  C 208.31 194.65 204.65 187.62 206.29 184.99
  Q 206.74 184.27 208.07 185.01
  Z"
/>
<path fill="#e55c44" d="
  M 175.84 177.32
  C 172.16 182.98 169.92 187.32 168.74 192.36
  Q 168.61 192.87 169.01 193.22
  L 187.19 209.16
  Q 182.56 213.73 177.75 217.62
  C 176.12 218.95 170.13 221.08 169.12 218.25
  A 2.06 2.02 10.8 0 0 168.55 217.43
  L 160.53 210.71
  A 1.95 1.95 0.0 0 1 160.00 208.43
  L 162.43 202.92
  Q 162.65 202.41 162.49 201.88
  C 161.38 198.35 163.80 197.67 164.47 195.22
  Q 165.52 191.41 163.30 187.76
  A 0.80 0.80 0.0 0 0 162.50 187.39
  C 159.39 187.91 157.80 190.98 154.92 192.19
  Q 154.47 192.38 154.33 192.85
  L 152.98 197.32
  Q 151.33 193.42 157.62 188.26
  L 162.62 183.44
  L 174.51 174.04
  A 1.14 1.14 0.0 0 1 176.20 175.52
  Q 175.82 176.17 175.84 177.32
  Z"
/>
<path fill="#e28857" d="
  M 164.03 181.00
  L 162.62 183.44
  L 157.62 188.26
  Q 159.90 184.06 164.03 181.00
  Z"
/>
<path fill="#e7473b" d="
  M 187.19 209.16
  L 191.13 205.51
  A 0.66 0.65 78.8 0 1 192.19 206.22
  L 190.69 210.22
  Q 189.67 211.88 189.53 213.74
  A 0.41 0.41 0.0 0 0 190.07 214.15
  L 191.32 213.72
  A 0.61 0.60 80.8 0 1 192.12 214.30
  Q 192.11 216.14 193.83 216.48
  A 0.56 0.56 0.0 0 1 194.17 217.36
  L 193.50 218.29
  Q 187.69 221.48 188.64 228.19
  Q 188.71 228.66 189.18 228.73
  L 191.22 229.04
  L 191.53 232.42
  A 0.91 0.91 0.0 0 1 190.39 233.37
  L 184.51 231.75
  Q 183.27 231.41 184.04 232.44
  L 185.92 234.99
  A 0.83 0.83 0.0 0 1 185.05 236.28
  L 180.33 235.07
  A 0.52 0.52 0.0 0 0 179.80 235.90
  L 181.54 237.99
  A 0.46 0.45 80.4 0 1 181.03 238.71
  Q 171.48 235.02 166.22 226.15
  A 0.35 0.35 0.0 0 1 166.48 225.63
  L 178.01 224.35
  Q 178.57 224.29 178.88 223.83
  L 182.75 218.23
  A 0.23 0.22 -4.3 0 0 182.41 217.94
  L 178.03 222.00
  Q 177.66 222.35 177.15 222.36
  C 172.16 222.49 166.12 222.64 161.92 219.78
  C 153.85 214.28 152.74 206.57 152.98 197.32
  L 154.33 192.85
  Q 154.47 192.38 154.92 192.19
  C 157.80 190.98 159.39 187.91 162.50 187.39
  A 0.80 0.80 0.0 0 1 163.30 187.76
  Q 165.52 191.41 164.47 195.22
  C 163.80 197.67 161.38 198.35 162.49 201.88
  Q 162.65 202.41 162.43 202.92
  L 160.00 208.43
  A 1.95 1.95 0.0 0 0 160.53 210.71
  L 168.55 217.43
  A 2.06 2.02 10.8 0 1 169.12 218.25
  C 170.13 221.08 176.12 218.95 177.75 217.62
  Q 182.56 213.73 187.19 209.16
  Z"
/>
<path fill="#e55c44" d="
  M 193.50 218.29
  L 194.17 217.36
  A 0.56 0.56 0.0 0 0 193.83 216.48
  Q 192.11 216.14 192.12 214.30
  A 0.61 0.60 80.8 0 0 191.32 213.72
  L 190.07 214.15
  A 0.41 0.41 0.0 0 1 189.53 213.74
  Q 189.67 211.88 190.69 210.22
  Q 190.91 211.01 191.41 211.11
  Q 191.90 211.22 192.20 210.82
  Q 195.54 206.57 199.91 203.40
  Q 200.63 202.88 201.21 203.03
  Q 201.94 203.21 202.06 204.13
  A 1.25 1.22 -70.7 0 0 202.38 204.82
  L 207.70 210.38
  Q 207.99 210.69 208.02 211.11
  Q 208.09 212.06 208.87 212.65
  Q 209.20 212.90 209.07 213.29
  L 206.83 219.85
  A 1.13 1.13 0.0 0 1 205.11 220.40
  Q 201.40 217.76 197.13 219.35
  A 0.49 0.48 -15.7 0 1 196.49 219.00
  L 196.28 218.00
  Q 196.11 217.20 195.36 217.51
  L 193.50 218.29
  Z"
/>
<path fill="#e28857" d="
  M 284.55 227.93
  L 284.09 232.28
  C 283.13 240.53 283.94 247.79 286.25 255.96
  A 0.27 0.27 0.0 0 1 285.78 256.19
  C 282.24 251.30 280.12 244.61 278.54 238.77
  A 0.36 0.36 0.0 0 0 277.84 238.82
  Q 274.83 265.97 286.12 290.96
  Q 280.54 293.83 274.24 292.66
  Q 268.38 291.58 263.28 292.29
  A 1.54 1.53 -11.3 0 1 261.59 291.17
  Q 256.16 271.24 258.63 250.68
  Q 258.83 249.01 257.19 248.67
  L 248.91 246.96
  Q 248.62 246.90 248.43 246.68
  Q 247.95 246.12 246.44 247.29
  Q 250.01 235.50 255.86 224.82
  L 264.73 206.96
  A 0.65 0.65 0.0 0 1 265.74 206.76
  L 267.93 208.65
  A 0.71 0.70 29.2 0 1 268.14 209.38
  L 262.95 225.75
  A 1.54 1.53 9.0 0 0 264.41 227.75
  L 284.55 227.93
  Z"
/>
<path fill="#b83c39" d="
  M 236.10 237.51
  Q 227.69 238.11 219.56 236.98
  C 222.56 228.05 227.20 220.59 229.32 211.25
  A 1.50 1.50 0.0 0 1 230.84 210.09
  L 236.92 210.32
  A 2.39 2.39 0.0 0 1 239.20 213.00
  L 236.10 237.51
  Z"
/>
<path fill="#8f3338" d="
  M 255.86 224.82
  Q 250.01 235.50 246.44 247.29
  Q 240.05 272.21 245.99 297.37
  Q 246.11 297.87 246.62 297.89
  Q 246.83 297.89 247.04 297.79
  L 247.05 298.53
  A 0.96 0.96 0.0 0 1 245.36 299.16
  Q 232.44 284.11 232.33 264.04
  A 0.59 0.59 0.0 0 0 231.24 263.73
  Q 224.21 275.09 224.22 288.58
  Q 224.23 291.66 222.68 289.00
  Q 213.96 274.07 213.01 256.75
  Q 212.92 255.11 211.92 256.42
  Q 204.73 265.87 204.08 277.77
  A 0.43 0.43 0.0 0 1 203.26 277.94
  Q 196.72 264.99 198.45 249.54
  L 215.20 249.31
  A 2.39 2.38 -84.7 0 0 217.50 247.39
  L 219.56 236.98
  Q 227.69 238.11 236.10 237.51
  L 235.63 244.73
  Q 235.08 258.13 237.02 272.71
  Q 237.12 273.41 237.79 273.19
  Q 239.09 272.77 240.45 273.45
  A 0.79 0.78 11.2 0 0 241.59 272.69
  C 241.26 268.37 240.97 264.58 241.87 260.24
  Q 243.87 250.55 246.25 240.67
  Q 248.77 231.97 253.22 223.50
  Q 255.30 222.83 255.86 224.82
  Z"
/>
<path fill="#e55c44" d="
  M 284.09 232.28
  Q 295.87 231.14 306.21 233.05
  Q 306.25 245.04 308.77 253.75
  Q 309.45 256.08 309.54 257.68
  Q 309.59 258.59 308.88 258.02
  Q 301.29 251.96 296.52 243.49
  A 0.36 0.36 0.0 0 0 295.85 243.69
  Q 296.26 248.66 296.74 253.97
  Q 298.43 272.93 309.14 288.27
  A 0.39 0.39 0.0 0 1 308.71 288.87
  C 300.41 286.39 296.48 281.22 291.85 274.48
  A 0.34 0.34 0.0 0 0 291.24 274.72
  C 293.07 286.81 295.18 297.92 300.71 308.81
  L 299.07 310.01
  A 0.57 0.57 0.0 0 1 298.30 309.92
  Q 291.03 301.17 286.12 290.96
  Q 274.83 265.97 277.84 238.82
  A 0.36 0.36 0.0 0 1 278.54 238.77
  C 280.12 244.61 282.24 251.30 285.78 256.19
  A 0.27 0.27 0.0 0 0 286.25 255.96
  C 283.94 247.79 283.13 240.53 284.09 232.28
  Z"
/>
<path fill="#b83c39" d="
  M 246.25 240.67
  Q 243.87 250.55 241.87 260.24
  C 240.97 264.58 241.26 268.37 241.59 272.69
  A 0.79 0.78 11.2 0 1 240.45 273.45
  Q 239.09 272.77 237.79 273.19
  Q 237.12 273.41 237.02 272.71
  Q 235.08 258.13 235.63 244.73
  L 243.10 244.57
  Q 243.64 244.56 243.72 245.09
  L 243.79 245.63
  A 0.19 0.19 0.0 0 0 244.16 245.63
  Q 244.71 242.78 246.25 240.67
  Z"
/>
<path fill="#e0a965" d="
  M 286.12 290.96
  Q 291.03 301.17 298.30 309.92
  A 0.57 0.57 0.0 0 0 299.07 310.01
  L 300.71 308.81
  Q 305.11 316.41 311.20 322.04
  A 0.30 0.30 0.0 0 1 310.86 322.53
  C 297.77 316.13 287.03 309.21 280.83 295.37
  A 0.70 0.70 0.0 0 0 279.50 295.53
  C 278.37 301.86 277.25 308.15 278.08 314.74
  Q 278.55 318.45 279.05 322.18
  Q 279.14 322.85 278.56 322.50
  C 267.70 315.98 253.37 302.37 251.18 289.36
  A 0.68 0.68 0.0 0 0 249.86 289.26
  L 247.04 297.79
  Q 246.83 297.89 246.62 297.89
  Q 246.11 297.87 245.99 297.37
  Q 240.05 272.21 246.44 247.29
  Q 247.95 246.12 248.43 246.68
  Q 248.62 246.90 248.91 246.96
  L 257.19 248.67
  Q 258.83 249.01 258.63 250.68
  Q 256.16 271.24 261.59 291.17
  A 1.54 1.53 -11.3 0 0 263.28 292.29
  Q 268.38 291.58 274.24 292.66
  Q 280.54 293.83 286.12 290.96
  Z"
/>
</svg>
